<svg version="1" xmlns="http://www.w3.org/2000/svg" width="857.333" height="857.333" viewBox="0 0 643.000000 643.000000"><path d="M304 10.1c-50.2 29-64.7 37.4-67 38.6-1.4.8-4 2.3-5.9 3.4-1.9 1.2-13.6 7.9-26 15.1-12.4 7.1-25.5 14.7-29.1 16.8-18.2 10.7-43.2 25-43.6 25-.3 0-1.7.8-3.2 1.9-2.3 1.6-39.6 23.2-55.1 31.9-2.6 1.5-10.7 6.1-17.9 10.2l-13.1 7.5-.1 161v161l4.8 2.6c2.6 1.4 12.1 6.9 21.2 12.1 9.1 5.3 26.9 15.5 39.5 22.8 12.7 7.3 24.4 14.1 26 15 31.7 18.4 63.5 36.6 65.2 37.4 1.3.6 2.3 1.4 2.3 1.8 0 .5.4.8.9.8.9 0 21.1 11.5 28.9 16.4 2.3 1.4 4.3 2.6 4.5 2.6.2 0 9.8 5.4 21.2 12.1 11.5 6.6 22.8 13.1 25.1 14.4 2.4 1.3 12.1 6.9 21.7 12.5l17.4 10 19.9-11.5c10.9-6.3 20.6-11.9 21.4-12.5.8-.6 2.2-1.3 3-1.7.8-.4 4.9-2.7 9-5.1 4.1-2.5 9.5-5.6 12-7 4.6-2.6 39.2-22.5 78-45 11.8-6.9 22.9-13.2 24.5-14.2 1.7-.9 8.7-5 15.8-9.1 7-4.1 13.5-7.9 14.5-8.4 21.1-11.6 79.9-46.2 79.4-46.6-.6-.6-80.5-47.4-92.2-54.1-4.5-2.6-6-3.5-26.5-15.5-20.8-12.2-25.9-15.2-100.3-58.8-32.7-19-59.6-34.4-59.8-34.2-.3.2.2 2 1 3.8 2.9 6.8 4.5 10.8 13.1 32.4 4.8 12.1 9.5 23.9 10.6 26.2 1 2.4 1.9 4.9 1.9 5.6 0 .7.4 1.7.8 2.2.5.6 2.7 5.9 5.1 12 5.6 14.2 5.6 14.4 7.4 18.5.9 1.9 2.3 5.5 3.2 8 .9 2.5 2.1 5.4 2.6 6.5 2 4.4 12.8 31.9 12.6 32.1-.7.5-22.9 13.7-38.4 22.8L322 500l-3.7-2c-2.1-1.1-6.3-3.5-9.4-5.2-13.7-8-70.5-41-71.9-41.9-2-1.1-47-27.1-58.8-33.9-5.1-2.9-9.6-5.8-10-6.4-.3-.6-.7-11.9-.8-25.1-.8-129.2-.7-152.6.1-153.4.8-.8 31.9-18.8 50.5-29.4 5.1-2.8 99-56.6 102.1-58.4 2.5-1.5 2.9-1.4 9.5 2.5 3.8 2.2 8.5 4.9 10.4 5.9 1.9 1.1 11.2 6.5 20.5 12 15.6 9.2 44.8 26.2 52 30.3 5.1 2.9 21.2 12.3 40.5 23.5 27 15.8 24.5 14.5 26.6 13.1 1.1-.7 14.1-8.4 28.9-17.1 30-17.5 46.2-27.1 48.5-28.5 3-1.8 26.1-15.3 36.8-21.5 2.9-1.7 5.2-3.3 5.2-3.7 0-.3-3.7-2.8-8.2-5.4-4.6-2.6-13.7-7.9-20.3-11.7-6.6-3.9-13.6-7.9-15.5-9-1.9-1-16.1-9.2-31.5-18.2-15.4-8.9-30-17.3-32.5-18.7-5-2.8-37.5-21.6-75.5-43.6-13.7-8-26.9-15.6-29.2-16.9-2.3-1.2-14-8-26-15-12-6.9-23.8-13.7-26.3-15.1-2.5-1.4-6.2-3.6-8.2-4.9-2.1-1.2-3.9-2.3-4-2.3-.2 0-8.2 4.5-17.8 10.1z"/></svg>